<svg xmlns="http://www.w3.org/2000/svg" viewBox="0 0 512 512" width="100%" height="100%">
  <defs>
    <linearGradient id="bgGrad192" x1="0%" y1="0%" x2="100%" y2="100%">
      <stop offset="0%" stop-color="#18181C"/>
      <stop offset="50%" stop-color="#0F0F12"/>
      <stop offset="100%" stop-color="#070709"/>
    </linearGradient>

    <linearGradient id="orangeGrad192" x1="0%" y1="0%" x2="100%" y2="100%">
      <stop offset="0%" stop-color="#FF9100"/>
      <stop offset="50%" stop-color="#FF5500"/>
      <stop offset="100%" stop-color="#D50000"/>
    </linearGradient>

    <linearGradient id="steelGrad192" x1="0%" y1="0%" x2="100%" y2="100%">
      <stop offset="0%" stop-color="#FFFFFF"/>
      <stop offset="50%" stop-color="#E2E8F0"/>
      <stop offset="100%" stop-color="#94A3B8"/>
    </linearGradient>

    <radialGradient id="orangeGlow192" cx="50%" cy="50%" r="50%">
      <stop offset="0%" stop-color="#FF5500" stop-opacity="0.35"/>
      <stop offset="100%" stop-color="#FF5500" stop-opacity="0"/>
    </radialGradient>

    <filter id="shadow192" x="-20%" y="-20%" width="140%" height="140%">
      <feDropShadow dx="0" dy="6" stdDeviation="8" flood-color="#000000" flood-opacity="0.6"/>
    </filter>
  </defs>

  <rect width="512" height="512" fill="url(#bgGrad192)"/>
  <circle cx="256" cy="256" r="180" fill="url(#orangeGlow192)"/>

  <g transform="translate(256, 256)" filter="url(#shadow192)">
    <g fill="url(#orangeGrad192)">
      <circle r="128" fill="none" stroke="url(#orangeGrad192)" stroke-width="14"/>
      
      <rect x="-14" y="-150" width="28" height="24" rx="5"/>
      <rect x="-14" y="126" width="28" height="24" rx="5"/>
      <rect x="-150" y="-14" width="24" height="28" rx="5"/>
      <rect x="126" y="-14" width="24" height="28" rx="5"/>

      <rect x="-14" y="-150" width="28" height="24" rx="5" transform="rotate(45)"/>
      <rect x="-14" y="-150" width="28" height="24" rx="5" transform="rotate(135)"/>
      <rect x="-14" y="-150" width="28" height="24" rx="5" transform="rotate(225)"/>
      <rect x="-14" y="-150" width="28" height="24" rx="5" transform="rotate(315)"/>
    </g>

    <circle r="110" fill="#0F0F12" stroke="url(#orangeGrad192)" stroke-width="4"/>
    <path d="M 0 -75 L 75 -10 L 58 -10 L 58 60 L -58 60 L -58 -10 L -75 -10 Z" fill="none" stroke="url(#orangeGrad192)" stroke-width="8" stroke-linejoin="round" opacity="0.4"/>

    <g transform="rotate(-35)">
      <rect x="-9" y="-60" width="18" height="115" rx="5" fill="url(#steelGrad192)"/>
      <path d="M -20 -55 C -26 -72 -8 -85 0 -85 C 8 -85 26 -72 20 -55 C 13 -48 11 -40 0 -40 C -11 -40 -13 -48 -20 -55 Z" fill="url(#steelGrad192)"/>
      <circle cx="0" cy="-64" r="9" fill="#0F0F12"/>
      <rect x="-6" y="-80" width="12" height="20" fill="#0F0F12"/>
      <circle cx="0" cy="55" r="17" fill="url(#steelGrad192)"/>
      <circle cx="0" cy="55" r="9" fill="#0F0F12"/>
    </g>

    <g transform="rotate(35)">
      <rect x="-8" y="-25" width="16" height="90" rx="4" fill="url(#orangeGrad192)"/>
      <path d="M -38 -52 L 20 -52 L 28 -48 L 28 -32 L 20 -28 L -12 -28 L -28 -24 C -38 -24 -42 -32 -38 -52 Z" fill="url(#steelGrad192)"/>
      <path d="M -12 -52 C -24 -64 -36 -60 -44 -48 C -36 -40 -24 -40 -12 -40 Z" fill="url(#steelGrad192)"/>
    </g>

    <polygon points="0,-18 16,-9 16,9 0,18 -16,9 -16,-9" fill="url(#orangeGrad192)"/>
    <circle cx="0" cy="0" r="8" fill="#0F0F12"/>
  </g>
</svg>
